<svg id="Logo_1" data-name="Logo 1" xmlns="http://www.w3.org/2000/svg" width="81.898" height="75" viewBox="0 0 81.898 75">
  <g id="Logo_1-2" data-name="Logo 1">
    <path id="Path_1" data-name="Path 1" d="M19.526,15.075H15.412L8.687,3.53H2.057L0,0H10.744L12.8,3.53h0Z" fill="#fff"/>
    <path id="Path_21" data-name="Path 21" d="M355.739-1177.113a2.9,2.9,0,0,1,2.914-2.887,2.9,2.9,0,0,1,2.914,2.887,2.9,2.9,0,0,1-2.914,2.887A2.9,2.9,0,0,1,355.739-1177.113Zm-9.74,0a2.9,2.9,0,0,1,2.914-2.887,2.9,2.9,0,0,1,2.914,2.887,2.9,2.9,0,0,1-2.914,2.887A2.9,2.9,0,0,1,346-1177.113Z" transform="translate(-305.712 1230.687)" fill="#fff"/>
    <path id="Path_20" data-name="Path 20" d="M363.52-1144.592l-1.5-2.6-.347-.6-.187-.324h24.787a2.24,2.24,0,0,0,1.982-1.091,2.2,2.2,0,0,0,0-2.247,2.24,2.24,0,0,0-1.982-1.091h-1.287l-1.8-3.1-.252-.431h3.338a5.776,5.776,0,0,1,5.8,5.743,5.778,5.778,0,0,1-5.8,5.746Zm-4.64-7.918-4.652-8.038-1.515-2.6-.536-.928-1.2-2.078-2.914-5-2.06-3.526h13.708l2.055,3.53,1.639,2.814.037.063.413.729,1.515,2.6,1.353,2.321h-9.587l1.207,2.078,4.651,8.038Zm-3.8-13.645h5.455l-2.914-5h-5.451Zm12.076,13.637-2.033-3.531H374.7l-.236-.409-.5-.853h-.04l-3.74-6.416-1.515-2.6-.536-.928h4.108l1.853,3.18h21.49a2.225,2.225,0,0,0,2.18-2.215,2.225,2.225,0,0,0-2.18-2.215l-18.9-.053a5.757,5.757,0,0,1-1.328-.343,5.844,5.844,0,0,1-2.24-1.556,5.7,5.7,0,0,1-.931-6.161A5.8,5.8,0,0,1,377.47-1180h32.786l-2.057,3.53H377.472a2.227,2.227,0,0,0-2.234,2.214,2.227,2.227,0,0,0,2.234,2.216h18.9a5.769,5.769,0,0,1,3.567,1.926,5.784,5.784,0,0,1,1.446,3.822,5.778,5.778,0,0,1-5.8,5.741H376.191l.178.307,1.683,2.889.76,1.3,1.3,2.225.76,1.305Z" transform="translate(-328.498 1193.294)" fill="#022132"/>
    <path id="Path_19" data-name="Path 19" d="M383.512-1168.73c0-2.321,1.535-3.488,4.579-3.488h2.279v-.849c0-1.073-.789-1.365-2.342-1.365a15.041,15.041,0,0,0-1.962.136c-.993.157-1.263-.067-1.263-1.05v-.09c0-.956.248-1.207,1.218-1.365a15.458,15.458,0,0,1,1.827-.111c3.542,0,5.459,1.073,5.459,3.844l0,4.269c0,2.415-1.489,3.6-4.895,3.6S383.512-1166.383,383.512-1168.73Zm2.933-.068c.091,1.073.813,1.185,1.917,1.163,1.15.022,1.894-.112,2.007-1.319v-1.073h-2.323C386.987-1170.027,386.445-1169.625,386.445-1168.8Zm-25.783.068c0-2.321,1.533-3.488,4.579-3.488h2.279v-.849c0-1.073-.789-1.365-2.342-1.365a15.062,15.062,0,0,0-1.963.136c-.992.157-1.263-.067-1.263-1.05v-.09c0-.956.248-1.207,1.219-1.365a15.459,15.459,0,0,1,1.827-.111c3.542,0,5.458,1.073,5.458,3.844l0,4.269c0,2.415-1.488,3.6-4.895,3.6S360.663-1166.383,360.663-1168.73Zm2.933-.068c.09,1.073.811,1.185,1.916,1.163,1.15.022,1.9-.112,2.009-1.319v-1.073H365.2C364.137-1170.027,363.6-1169.625,363.6-1168.8Zm-7.464,3.334a2.182,2.182,0,0,1-2.121-1.028l-3.27-4.113a4.033,4.033,0,0,1-1.037-2.5,3.879,3.879,0,0,1,1.037-2.437l2.817-3.447a2.2,2.2,0,0,1,2.12-1.006h.964c1.061,0,1.15.2.5,1.006l-3.5,4.336a8.161,8.161,0,0,0-.992,1.365,1.141,1.141,0,0,0-.045.273.738.738,0,0,0,.138.425l.9,1.14,3.948,4.963c.654.827.563,1.028-.5,1.028Zm55.978-.005c-1.015,0-1.263-.246-1.263-1.252v-5.678c0-1.252-.361-1.765-1.827-1.765-1.534,0-1.918.513-1.918,1.765v5.678c0,1.006-.248,1.252-1.263,1.252H405.5c-1.014,0-1.263-.246-1.263-1.252v-5.678c0-1.252-.361-1.765-1.872-1.765-1.466,0-1.872.513-1.872,1.765l.005,5.678c0,1.006-.248,1.252-1.263,1.252h-.428c-1.015,0-1.263-.246-1.263-1.252v-5.678c0-2.928,1.67-4.515,4.822-4.515a3.753,3.753,0,0,1,3.339,1.431,3.83,3.83,0,0,1,3.316-1.431c3.27,0,4.782,1.474,4.782,4.515v5.678c0,1.006-.248,1.252-1.263,1.252Zm-36.153,0c-1.015,0-1.263-.246-1.263-1.252v-6.124c0-2.661,1.624-4.068,4.692-4.068h.248c.879,0,1.15.38,1.15,1.431v.246c0,.983-.226,1.14-1.15,1.073h-.248c-1.378,0-1.737.446-1.737,1.541v5.9c0,1.006-.248,1.252-1.263,1.252Zm-28.648,0c-1.059,0-1.309-.291-1.309-1.3V-1178.7c0-1.006.249-1.3,1.309-1.3h.413c1.061,0,1.309.291,1.309,1.3v11.936c0,1.006-.248,1.3-1.309,1.3Z" transform="translate(-331.903 1240.198)" fill="#fff"/>
  </g>
</svg>
